<mxfile host="app.diagrams.net" agent="Mozilla/5.0 (Windows NT 10.0; Win64; x64) AppleWebKit/537.36 (KHTML, like Gecko) Chrome/125.0.0.0 Safari/537.36" version="24.7.16">
  <diagram name="Página-1" id="F1F0NJC7aKmJSJxFFDqC">
    <mxGraphModel dx="880" dy="434" grid="1" gridSize="10" guides="1" tooltips="1" connect="1" arrows="1" fold="1" page="1" pageScale="1" pageWidth="827" pageHeight="1169" math="0" shadow="0">
      <root>
        <mxCell id="0" />
        <mxCell id="1" parent="0" />
        <mxCell id="9m7g6FH_g3p-9GpK2U6R-9" value="" style="edgeStyle=orthogonalEdgeStyle;rounded=0;orthogonalLoop=1;jettySize=auto;html=1;" edge="1" parent="1" source="9m7g6FH_g3p-9GpK2U6R-1" target="9m7g6FH_g3p-9GpK2U6R-2">
          <mxGeometry relative="1" as="geometry" />
        </mxCell>
        <mxCell id="9m7g6FH_g3p-9GpK2U6R-1" value="Inicio (checar Palindromo)" style="rounded=1;whiteSpace=wrap;html=1;" vertex="1" parent="1">
          <mxGeometry x="130" y="10" width="120" height="60" as="geometry" />
        </mxCell>
        <mxCell id="9m7g6FH_g3p-9GpK2U6R-10" value="" style="edgeStyle=orthogonalEdgeStyle;rounded=0;orthogonalLoop=1;jettySize=auto;html=1;" edge="1" parent="1" source="9m7g6FH_g3p-9GpK2U6R-2" target="9m7g6FH_g3p-9GpK2U6R-3">
          <mxGeometry relative="1" as="geometry" />
        </mxCell>
        <mxCell id="9m7g6FH_g3p-9GpK2U6R-2" value="Recebe a palavra do usuário" style="rounded=1;whiteSpace=wrap;html=1;" vertex="1" parent="1">
          <mxGeometry x="130" y="110" width="120" height="60" as="geometry" />
        </mxCell>
        <mxCell id="9m7g6FH_g3p-9GpK2U6R-11" value="" style="edgeStyle=orthogonalEdgeStyle;rounded=0;orthogonalLoop=1;jettySize=auto;html=1;" edge="1" parent="1" source="9m7g6FH_g3p-9GpK2U6R-3" target="9m7g6FH_g3p-9GpK2U6R-4">
          <mxGeometry relative="1" as="geometry" />
        </mxCell>
        <mxCell id="9m7g6FH_g3p-9GpK2U6R-3" value="Salva em outra variável a palavra invertida" style="rounded=1;whiteSpace=wrap;html=1;" vertex="1" parent="1">
          <mxGeometry x="130" y="210" width="120" height="60" as="geometry" />
        </mxCell>
        <mxCell id="9m7g6FH_g3p-9GpK2U6R-12" value="" style="edgeStyle=orthogonalEdgeStyle;rounded=0;orthogonalLoop=1;jettySize=auto;html=1;" edge="1" parent="1" source="9m7g6FH_g3p-9GpK2U6R-4" target="9m7g6FH_g3p-9GpK2U6R-6">
          <mxGeometry relative="1" as="geometry" />
        </mxCell>
        <mxCell id="9m7g6FH_g3p-9GpK2U6R-14" value="" style="edgeStyle=orthogonalEdgeStyle;rounded=0;orthogonalLoop=1;jettySize=auto;html=1;" edge="1" parent="1" source="9m7g6FH_g3p-9GpK2U6R-4" target="9m7g6FH_g3p-9GpK2U6R-5">
          <mxGeometry relative="1" as="geometry" />
        </mxCell>
        <mxCell id="9m7g6FH_g3p-9GpK2U6R-4" value="Palavra == palavra invertida" style="rhombus;whiteSpace=wrap;html=1;" vertex="1" parent="1">
          <mxGeometry x="115" y="310" width="150" height="110" as="geometry" />
        </mxCell>
        <mxCell id="9m7g6FH_g3p-9GpK2U6R-15" value="" style="edgeStyle=orthogonalEdgeStyle;rounded=0;orthogonalLoop=1;jettySize=auto;html=1;" edge="1" parent="1" source="9m7g6FH_g3p-9GpK2U6R-5" target="9m7g6FH_g3p-9GpK2U6R-7">
          <mxGeometry relative="1" as="geometry" />
        </mxCell>
        <mxCell id="9m7g6FH_g3p-9GpK2U6R-5" value="É um palindromo" style="rounded=1;whiteSpace=wrap;html=1;" vertex="1" parent="1">
          <mxGeometry x="130" y="460" width="120" height="60" as="geometry" />
        </mxCell>
        <mxCell id="9m7g6FH_g3p-9GpK2U6R-13" value="" style="edgeStyle=orthogonalEdgeStyle;rounded=0;orthogonalLoop=1;jettySize=auto;html=1;" edge="1" parent="1" source="9m7g6FH_g3p-9GpK2U6R-6" target="9m7g6FH_g3p-9GpK2U6R-7">
          <mxGeometry relative="1" as="geometry" />
        </mxCell>
        <mxCell id="9m7g6FH_g3p-9GpK2U6R-6" value="Não é um palindromo" style="rounded=1;whiteSpace=wrap;html=1;" vertex="1" parent="1">
          <mxGeometry x="320" y="330" width="120" height="60" as="geometry" />
        </mxCell>
        <mxCell id="9m7g6FH_g3p-9GpK2U6R-7" value="Fim" style="rounded=1;whiteSpace=wrap;html=1;" vertex="1" parent="1">
          <mxGeometry x="320" y="460" width="120" height="60" as="geometry" />
        </mxCell>
      </root>
    </mxGraphModel>
  </diagram>
</mxfile>
